<?xml version="1.0" encoding="UTF-8" standalone="no"?>
<svg width="24px" height="24px" viewBox="0 0 24 24" version="1.1" xmlns="http://www.w3.org/2000/svg" xmlns:xlink="http://www.w3.org/1999/xlink">
    <!-- Generator: Sketch 40.3 (33839) - http://www.bohemiancoding.com/sketch -->
    <title>Facebook-black</title>
    <desc>Created with Sketch.</desc>
    <defs></defs>
    <g id="Symbols" stroke="none" stroke-width="1" fill="none" fill-rule="evenodd">
        <g id="Footer/-Footer" transform="translate(-1136.000000, -119.000000)" fill="#FFFFFF">
            <path d="M1148.45292,142.314286 L1137.28677,142.314286 C1136.5759,142.314286 1136,141.73803 1136,141.027436 L1136,120.28676 C1136,119.575984 1136.57599,119 1137.28677,119 L1158.02761,119 C1158.73821,119 1159.31429,119.575984 1159.31429,120.28676 L1159.31429,141.027436 C1159.31429,141.738121 1158.73812,142.314286 1158.02761,142.314286 L1152.08652,142.314286 L1152.08652,133.285709 L1155.117,133.285709 L1155.57077,129.767113 L1152.08652,129.767113 L1152.08652,127.520712 C1152.08652,126.501997 1152.3694,125.807776 1153.83023,125.807776 L1155.69344,125.806962 L1155.69344,122.659901 C1155.3712,122.617021 1154.26518,122.52122 1152.97841,122.52122 C1150.29206,122.52122 1148.45292,124.16097 1148.45292,127.172244 L1148.45292,129.767113 L1145.41466,129.767113 L1145.41466,133.285709 L1148.45292,133.285709 L1148.45292,142.314286 L1148.45292,142.314286 Z" id="Facebook"></path>
        </g>
    </g>
</svg>