<?xml version="1.0" encoding="UTF-8" standalone="no"?>
<svg width="34px" height="22px" viewBox="0 0 34 22" version="1.1" xmlns="http://www.w3.org/2000/svg" xmlns:xlink="http://www.w3.org/1999/xlink">
    <!-- Generator: Sketch 40.3 (33839) - http://www.bohemiancoding.com/sketch -->
    <title>GooglePlus-black</title>
    <desc>Created with Sketch.</desc>
    <defs></defs>
    <g id="Symbols" stroke="none" stroke-width="1" fill="none" fill-rule="evenodd">
        <g id="Footer/-Footer" transform="translate(-1232.000000, -121.000000)" fill="#FFFFFF">
            <path d="M1262.20701,130.103819 L1262.20701,126.361245 L1259.53854,126.361245 L1259.53854,130.103819 L1255.69596,130.103819 L1255.69596,132.777086 L1259.53854,132.777086 L1259.53854,136.626591 L1262.20701,136.626591 L1262.20701,132.777086 L1265.94286,132.777086 L1265.94286,130.103819 L1262.20701,130.103819 L1262.20701,130.103819 Z M1242.78059,129.889958 L1242.78059,134.167185 C1242.78059,134.167185 1246.92248,134.161625 1248.60894,134.161625 C1247.69569,136.934445 1246.27564,138.444413 1242.78059,138.444413 C1239.2436,138.444413 1236.48302,135.571934 1236.48302,132.028571 C1236.48302,128.485209 1239.2436,125.61273 1242.78059,125.61273 C1244.65065,125.61273 1245.8584,126.271209 1246.96624,127.188995 C1247.85302,126.300615 1247.77895,126.174009 1250.03508,124.039565 C1248.11987,122.293173 1245.57437,121.228571 1242.78059,121.228571 C1236.82661,121.228571 1232,126.06387 1232,132.028571 C1232,137.993165 1236.82661,142.828571 1242.78059,142.828571 C1251.68013,142.828571 1253.85536,135.065403 1253.13423,129.889958 L1242.78059,129.889958 L1242.78059,129.889958 Z" id="GooglePlus"></path>
        </g>
    </g>
</svg>