<?xml version="1.0" encoding="UTF-8" standalone="no"?>
<svg width="39px" height="38px" viewBox="0 0 39 38" version="1.1" xmlns="http://www.w3.org/2000/svg" xmlns:xlink="http://www.w3.org/1999/xlink">
    <!-- Generator: Sketch 40.3 (33839) - http://www.bohemiancoding.com/sketch -->
    <title>Fill 1</title>
    <desc>Created with Sketch.</desc>
    <defs></defs>
    <g id="Symbols" stroke="none" stroke-width="1" fill="none" fill-rule="evenodd">
        <g id="Block/-CTAs2" transform="translate(-701.000000, -111.000000)" fill="#FFFFFF">
            <path d="M735.716631,145.054311 L704.944245,145.054311 L704.944245,144.138841 C704.944245,142.638286 705.875727,141.299284 707.287505,140.795703 L717.963163,136.831093 L717.963163,131.78946 L717.551274,131.255314 C716.551386,129.959975 713.954879,126.012831 713.954879,123.356659 C713.954879,118.796775 716.867216,114.945689 720.315156,114.945689 C723.770372,114.945689 726.689987,118.796775 726.689987,123.356659 C726.689987,126.328661 725.460139,129.10709 723.479284,130.604734 L722.697712,131.197097 L722.697712,136.828182 L733.33553,140.805891 C734.737119,141.30365 735.716631,142.674672 735.716631,144.138841 L735.716631,145.054311 Z M734.687634,137.098893 L726.643413,134.091961 L726.643413,133.097897 C729.158414,130.782297 730.635687,127.217933 730.635687,123.356659 C730.635687,116.543759 726.004474,111 720.315156,111 C714.633115,111 710.010634,116.543759 710.010634,123.356659 C710.010634,127.162626 712.882219,131.534758 714.018919,133.113907 L714.018919,134.087594 L705.941222,137.088705 C702.985221,138.138075 701,140.97181 701,144.138841 L701,149 L739.662331,149 L739.662331,144.138841 C739.662331,140.984909 737.649456,138.152629 734.687634,137.098893 L734.687634,137.098893 Z" id="Fill-1"></path>
        </g>
    </g>
</svg>