<?xml version="1.0" encoding="UTF-8" standalone="no"?>
<svg width="25px" height="23px" viewBox="0 0 25 23" version="1.1" xmlns="http://www.w3.org/2000/svg" xmlns:xlink="http://www.w3.org/1999/xlink">
    <!-- Generator: Sketch 40.3 (33839) - http://www.bohemiancoding.com/sketch -->
    <title>LinkedIn-black</title>
    <desc>Created with Sketch.</desc>
    <defs></defs>
    <g id="Symbols" stroke="none" stroke-width="1" fill="none" fill-rule="evenodd">
        <g id="Footer/-Footer" transform="translate(-1286.000000, -119.000000)" fill="#FFFFFF">
            <path d="M1310.17143,141.649261 L1305.01865,141.649261 L1305.01865,134.018592 C1305.01865,132.021275 1304.21263,130.657762 1302.44021,130.657762 C1301.0845,130.657762 1300.33057,131.57789 1299.97965,132.46466 C1299.84806,132.782952 1299.86862,133.226337 1299.86862,133.669722 L1299.86862,141.649261 L1294.76382,141.649261 C1294.76382,141.649261 1294.82962,128.132275 1294.76382,126.903584 L1299.86862,126.903584 L1299.86862,129.217803 C1300.17019,128.20594 1301.80142,126.761812 1304.40454,126.761812 C1307.63411,126.761812 1310.17143,128.882832 1310.17143,133.450114 L1310.17143,141.649261 L1310.17143,141.649261 Z M1289.60145,125.059158 L1289.56855,125.059158 C1287.92361,125.059158 1286.85714,123.931932 1286.85714,122.503093 C1286.85714,121.046455 1287.95514,119.942857 1289.63298,119.942857 C1291.30945,119.942857 1292.34028,121.043675 1292.37318,122.498923 C1292.37318,123.927762 1291.30945,125.059158 1289.60145,125.059158 L1289.60145,125.059158 L1289.60145,125.059158 Z M1287.44521,126.903584 L1291.98936,126.903584 L1291.98936,141.649261 L1287.44521,141.649261 L1287.44521,126.903584 L1287.44521,126.903584 Z" id="LinkedIn"></path>
        </g>
    </g>
</svg>