<?xml version="1.0" encoding="UTF-8" standalone="no"?>
<svg width="26px" height="22px" viewBox="0 0 26 22" version="1.1" xmlns="http://www.w3.org/2000/svg" xmlns:xlink="http://www.w3.org/1999/xlink">
    <!-- Generator: Sketch 40.3 (33839) - http://www.bohemiancoding.com/sketch -->
    <title>Twitter-black</title>
    <desc>Created with Sketch.</desc>
    <defs></defs>
    <g id="Symbols" stroke="none" stroke-width="1" fill="none" fill-rule="evenodd">
        <g id="Footer/-Footer" transform="translate(-1184.000000, -121.000000)" fill="#FFFFFF">
            <path d="M1209.37143,123.780015 C1208.46439,124.198242 1207.4878,124.481071 1206.46339,124.607442 C1207.50953,123.957536 1208.31225,122.927014 1208.69042,121.699415 C1207.71094,122.301179 1206.62857,122.738963 1205.47231,122.973651 C1204.55078,121.952156 1203.23369,121.314286 1201.77605,121.314286 C1198.98103,121.314286 1196.71343,123.668689 1196.71343,126.572202 C1196.71343,126.984411 1196.75689,127.384584 1196.84383,127.769714 C1192.63464,127.55007 1188.9036,125.458938 1186.40417,122.2741 C1185.96803,123.053385 1185.71881,123.957536 1185.71881,124.920359 C1185.71881,126.743705 1186.61281,128.353425 1187.97193,129.296691 C1187.14313,129.271116 1186.3607,129.031915 1185.67679,128.640768 L1185.67679,128.705457 C1185.67679,131.25393 1187.42278,133.379663 1189.74109,133.861074 C1189.31655,133.984436 1188.86882,134.046117 1188.40661,134.046117 C1188.0806,134.046117 1187.76183,134.014524 1187.4532,133.952843 C1188.09799,136.040966 1189.96713,137.561925 1192.18402,137.602544 C1190.45108,139.013682 1188.26606,139.854648 1185.89414,139.854648 C1185.48553,139.854648 1185.08128,139.830577 1184.68571,139.782436 C1186.92724,141.271803 1189.5904,142.142857 1192.44917,142.142857 C1201.7659,142.142857 1206.85895,134.131868 1206.85895,127.182993 C1206.85895,126.954323 1206.85461,126.725652 1206.84591,126.501495 C1207.83554,125.75982 1208.69477,124.834608 1209.37143,123.780015" id="Twitter"></path>
        </g>
    </g>
</svg>